<svg width="150" height="94" viewBox="0 0 150 94" fill="none" xmlns="http://www.w3.org/2000/svg">
<path d="M123.162 94H34.636C15.5376 94 0 78.2522 0 58.8956C0 39.539 15.5376 23.7912 34.636 23.7912H40.934C44.3989 16.7496 49.7381 10.7922 56.3687 6.56936C63.0962 2.28183 70.914 0.00234589 78.8991 0C101.049 0 119.51 17.3608 121.228 39.6521H123.162C137.961 39.6521 150 51.8423 150 66.8261C150 81.8098 137.961 94 123.162 94ZM34.636 25.2697C16.3556 25.2697 1.48334 40.3542 1.48334 58.8956C1.48334 77.4369 16.3556 92.5215 34.636 92.5215H123.162C137.143 92.5215 148.517 80.9946 148.517 66.8261C148.517 52.6575 137.143 41.1306 123.162 41.1306H119.838L119.796 40.4364C118.459 18.5909 100.495 1.47853 78.8991 1.47853C63.3479 1.47853 48.8905 10.6524 42.0672 24.8498L41.8654 25.2697H34.636Z" fill="white"/>
</svg>
