<svg width="150" height="82" viewBox="0 0 150 82" fill="none" xmlns="http://www.w3.org/2000/svg">
<path d="M54.0932 81.5642C32.578 80.6724 12.9761 72.0081 4.10841 58.5849C3.69398 57.9566 3.30329 57.3196 2.93642 56.6737C-0.301115 50.9542 -1.31259 44.3795 2.22758 38.7431C5.76774 33.1068 14.6172 28.8263 23.4889 29.716C32.3607 30.6058 39.3009 37.673 35.6267 43.2668C34.8142 31.9616 34.1337 20.0829 43.2675 10.243C48.2956 5.10031 54.8552 1.71767 61.9677 0.599753C80.3733 -2.63088 92.5921 7.75419 95.0396 18.2325C96.8452 25.9726 94.3511 33.8384 91.8671 41.4975C99.5222 32.4643 117.727 28.4452 131.676 32.7115C145.626 36.9778 153.354 48.9255 148.591 58.8566C142.979 70.5388 124.271 76.5764 106.893 79.7685C92.5393 82.4053 71.0221 82.2655 54.0932 81.5642Z" fill="#E6E6E6"/>
</svg>
