<svg width="367" height="2134" viewBox="0 0 367 2134" fill="none" xmlns="http://www.w3.org/2000/svg">
<path d="M165.73 1327L163.735 1322.84C169.078 1316.45 174.34 1310.02 179.376 1303.73L181.427 1307.83C176.373 1314.14 171.091 1320.59 165.73 1327ZM196.853 1288.1L194.741 1284.08C199.913 1277.29 204.97 1270.48 209.772 1263.82L211.955 1267.74C207.13 1274.43 202.049 1281.28 196.853 1288.1ZM226.667 1246.66L224.404 1242.85C229.34 1235.54 234.098 1228.23 238.548 1221.1L240.902 1224.77C236.423 1231.94 231.632 1239.31 226.667 1246.66ZM254.541 1201.91L252.08 1198.42C256.614 1190.45 260.903 1182.46 264.826 1174.68L267.413 1177.93C263.449 1185.79 259.119 1193.86 254.541 1201.91ZM279.265 1152.65L276.533 1149.71C280.377 1140.81 283.845 1131.93 286.841 1123.31L289.741 1125.82C286.694 1134.59 283.169 1143.61 279.265 1152.65ZM298.279 1097.26L295.201 1095.35C297.599 1085.8 299.477 1075.93 300.815 1065.87L304.054 1066.92C302.679 1077.28 300.747 1087.43 298.279 1097.26ZM302.693 1035.39C302.595 1025.24 301.702 1015.15 300.034 1005.34L303.228 1003.98C304.966 1014.2 305.897 1024.72 306 1035.3L302.693 1035.39ZM292.8 977.157C289.66 968.201 285.974 959.75 281.795 951.924L284.33 948.574C288.648 956.661 292.456 965.393 295.7 974.648L292.8 977.157ZM268.132 929.887C263.217 923.051 258.07 916.647 252.712 910.702L254.62 906.439C260.078 912.493 265.32 919.017 270.324 925.98L268.132 929.887ZM236.141 893.896C230.731 888.876 224.896 883.865 218.801 879.006L220.29 874.345C226.449 879.253 232.346 884.317 237.816 889.393L236.141 893.896ZM200.928 865.66C195.172 861.621 189.041 857.557 182.705 853.577L183.929 848.727C190.304 852.73 196.475 856.822 202.272 860.887L200.928 865.66ZM164.164 842.477C158.272 839.104 151.974 835.641 145.446 832.186L146.495 827.234C153.049 830.705 159.374 834.18 165.291 837.566L164.164 842.477ZM126.58 822.512C120.817 819.641 114.614 816.62 107.613 813.272L108.573 808.274C115.584 811.627 121.801 814.656 127.575 817.53L126.58 822.512ZM89.5341 805.28C82.8446 802.121 75.4881 780.387 78.8349 785.573L85.032 782.461C85.032 788.684 94.536 802.168 94.536 802.168L89.5341 805.28ZM85.032 760.68H78.8349C78.8349 760.68 85.032 743.047 89.5341 738.898L94.536 743.047C89.5341 748.245 88.5864 763.804 85.032 760.68ZM107.613 727.489L99.2481 724.377C105.341 722.539 117.346 709.699 124.196 707.782L126.58 711.93C126.58 711.93 113.693 725.653 107.613 727.489ZM139.063 705.513L137.043 700.498C143.274 698.848 148.537 690.142 156.582 686L160.031 690.142C149.686 695.32 145.446 702.569 139.063 705.513Z" fill="white"/>
<path d="M174.206 680L172.573 675.828C176.945 669.423 181.252 662.979 185.373 656.676L187.051 660.781C182.915 667.107 178.593 673.574 174.206 680ZM199.676 641.002L197.947 636.974C202.18 630.172 206.319 623.337 210.248 616.66L212.035 620.592C208.087 627.301 203.928 634.17 199.676 641.002ZM224.076 599.466L222.223 595.647C226.262 588.319 230.157 580.983 233.798 573.839L235.725 577.514C232.059 584.704 228.139 592.091 224.076 599.466ZM246.887 554.602L244.873 551.105C248.584 543.11 252.093 535.101 255.304 527.305L257.421 530.567C254.177 538.442 250.633 546.53 246.887 554.602ZM267.12 505.218L264.884 502.269C268.031 493.35 270.869 484.448 273.32 475.808L275.694 478.328C273.2 487.114 270.315 496.162 267.12 505.218ZM282.681 449.693L280.162 447.781C282.125 438.201 283.662 428.315 284.757 418.23L287.408 419.283C286.282 429.661 284.701 439.835 282.681 449.693ZM286.294 387.67C286.214 377.495 285.483 367.379 284.117 357.551L286.731 356.187C288.153 366.431 288.915 376.976 289 387.583L286.294 387.67ZM278.198 329.294C275.627 320.316 272.611 311.845 269.191 303.999L271.266 300.641C274.799 308.747 277.916 317.501 280.571 326.779L278.198 329.294ZM258.009 281.907C253.987 275.055 249.775 268.635 245.39 262.675L246.952 258.401C251.418 264.471 255.708 271.011 259.804 277.991L258.009 281.907ZM231.828 245.828C227.402 240.795 222.626 235.772 217.638 230.901L218.856 226.228C223.897 231.149 228.723 236.225 233.2 241.314L231.828 245.828ZM203.011 217.522C198.3 213.473 193.283 209.399 188.098 205.409L189.099 200.547C194.316 204.56 199.367 208.663 204.11 212.737L203.011 217.522ZM172.924 194.282C168.102 190.9 162.947 187.429 157.605 183.966L158.464 179.002C163.827 182.481 169.003 185.965 173.846 189.359L172.924 194.282ZM142.166 174.268C137.45 171.39 132.373 168.361 126.644 165.005L127.429 159.995C133.167 163.356 138.254 166.393 142.98 169.273L142.166 174.268ZM111.848 156.993C106.373 153.826 100.353 132.038 103.092 137.237L108.164 134.118C108.164 140.357 115.941 153.874 115.941 153.874L111.848 156.993ZM104.072 112.283H99C99 112.283 104.072 94.6066 107.756 90.4475L111.85 94.6066C107.756 99.818 106.981 115.415 104.072 112.283ZM123.687 76.1413L118.776 71.4318C123.763 69.5889 131.335 55.9437 136.941 54.0215L138.892 58.1806C138.892 58.1806 128.662 74.3009 123.687 76.1413ZM149.926 47.5611L147.455 42.5338C152.554 40.88 156.861 32.1525 163.446 28L166.268 32.1525C157.802 37.3431 155.15 44.61 149.926 47.5611Z" fill="white"/>
<path d="M154.73 2134L152.735 2128.81C158.078 2120.85 163.34 2112.84 168.376 2105L170.427 2110.1C165.373 2117.97 160.091 2126.01 154.73 2134ZM185.853 2085.51L183.741 2080.5C188.913 2072.04 193.97 2063.54 198.772 2055.24L200.955 2060.13C196.13 2068.47 191.049 2077.01 185.853 2085.51ZM215.667 2033.86L213.404 2029.11C218.34 2020 223.098 2010.88 227.548 2002L229.902 2006.57C225.423 2015.51 220.632 2024.69 215.667 2033.86ZM243.541 1978.08L241.08 1973.73C245.614 1963.79 249.903 1953.83 253.826 1944.14L256.413 1948.19C252.449 1957.98 248.119 1968.04 243.541 1978.08ZM268.265 1916.67L265.533 1913C269.377 1901.92 272.845 1890.85 275.841 1880.1L278.741 1883.24C275.694 1894.16 272.169 1905.41 268.265 1916.67ZM287.279 1847.63L284.201 1845.25C286.599 1833.34 288.477 1821.05 289.815 1808.51L293.054 1809.82C291.679 1822.72 289.747 1835.37 287.279 1847.63ZM291.693 1770.51C291.595 1757.86 290.702 1745.28 289.034 1733.06L292.228 1731.36C293.966 1744.1 294.897 1757.21 295 1770.4L291.693 1770.51ZM281.8 1697.92C278.66 1686.76 274.974 1676.23 270.795 1666.47L273.33 1662.3C277.648 1672.38 281.456 1683.26 284.7 1694.8L281.8 1697.92ZM257.132 1639C252.217 1630.48 247.07 1622.5 241.712 1615.09L243.62 1609.77C249.078 1617.32 254.32 1625.45 259.324 1634.13L257.132 1639ZM225.141 1594.14C219.731 1587.88 213.896 1581.64 207.801 1575.58L209.29 1569.77C215.449 1575.89 221.346 1582.2 226.816 1588.53L225.141 1594.14ZM189.928 1558.94C184.172 1553.91 178.041 1548.84 171.705 1543.88L172.929 1537.84C179.304 1542.83 185.475 1547.93 191.272 1552.99L189.928 1558.94ZM153.164 1530.05C147.272 1525.84 140.974 1521.53 134.446 1517.22L135.495 1511.05C142.049 1515.37 148.374 1519.71 154.291 1523.93L153.164 1530.05ZM115.58 1505.16C109.817 1501.58 103.614 1497.82 96.6135 1493.64L97.5726 1487.41C104.584 1491.59 110.801 1495.37 116.575 1498.95L115.58 1505.16ZM78.5341 1483.68C71.8446 1479.74 64.4881 1452.65 67.8349 1459.12L74.032 1455.24C74.032 1463 83.536 1479.8 83.536 1479.8L78.5341 1483.68ZM74.032 1428.09H67.8349C67.8349 1428.09 74.032 1406.11 78.5341 1400.94L83.536 1406.11C78.5341 1412.59 77.5864 1431.98 74.032 1428.09ZM96.6135 1386.72L88.2481 1382.84C94.341 1380.55 106.346 1364.54 113.196 1362.15L115.58 1367.32C115.58 1367.32 102.693 1384.43 96.6135 1386.72ZM128.063 1359.32L126.043 1353.07C132.274 1351.02 137.537 1340.16 145.582 1335L149.031 1340.16C138.686 1346.62 134.446 1355.65 128.063 1359.32Z" fill="white"/>
</svg>
