<svg width="278" height="2231" viewBox="0 0 278 2231" fill="none" xmlns="http://www.w3.org/2000/svg">
<path d="M123.964 309L123.124 306.994C125.373 303.914 127.587 300.815 129.707 297.784L130.57 299.758C128.443 302.8 126.22 305.91 123.964 309ZM137.063 290.247L136.174 288.31C138.35 285.039 140.479 281.752 142.5 278.542L143.419 280.432C141.388 283.659 139.25 286.961 137.063 290.247ZM149.611 270.273L148.658 268.437C150.736 264.913 152.738 261.385 154.611 257.95L155.602 259.717C153.717 263.175 151.701 266.727 149.611 270.273ZM161.342 248.699L160.307 247.018C162.215 243.173 164.02 239.322 165.671 235.573L166.76 237.142C165.091 240.929 163.269 244.818 161.342 248.699ZM171.748 224.952L170.598 223.534C172.216 219.245 173.676 214.964 174.936 210.81L176.157 212.022C174.874 216.246 173.391 220.597 171.748 224.952ZM179.75 198.251L178.455 197.332C179.464 192.725 180.255 187.971 180.818 183.122L182.181 183.628C181.602 188.619 180.789 193.511 179.75 198.251ZM181.608 168.426C181.567 163.533 181.191 158.669 180.489 153.943L181.833 153.287C182.565 158.213 182.957 163.284 183 168.384L181.608 168.426ZM177.445 140.355C176.123 136.038 174.572 131.964 172.813 128.191L173.88 126.576C175.697 130.474 177.3 134.684 178.665 139.145L177.445 140.355ZM167.062 117.568C164.994 114.273 162.827 111.186 160.572 108.32L161.376 106.265C163.672 109.183 165.879 112.328 167.985 115.685L167.062 117.568ZM153.598 100.218C151.321 97.7982 148.865 95.3829 146.3 93.0401L146.927 90.7933C149.519 93.1594 152.001 95.6004 154.303 98.0477L153.598 100.218ZM138.778 86.6068C136.355 84.6598 133.775 82.7005 131.108 80.7818L131.623 78.444C134.306 80.3738 136.904 82.3466 139.343 84.3058L138.778 86.6068ZM123.305 75.4312C120.825 73.805 118.174 72.1359 115.427 70.4704L115.868 68.0834C118.627 69.7562 121.289 71.4316 123.779 73.0639L123.305 75.4312ZM107.487 65.807C105.061 64.423 102.45 62.9664 99.504 61.3526L99.9076 58.9434C102.859 60.5598 105.475 62.02 107.905 63.4052L107.487 65.807ZM91.496 57.0051C88.6805 55.4821 85.9962 54.0268 83.4832 52.6269L83.8929 50.2202C86.4026 51.6202 89.0828 53.073 91.8948 54.5935L91.496 57.0051ZM75.502 47.9585C72.8246 46.3603 70.2065 44.4541 67.6635 42.2516L68.2894 40.0023C70.7769 42.1555 73.3381 44.0182 75.9573 45.5789L75.502 47.9585ZM64.9922 31.4573L64 29.6922C65.2688 27.3605 67.7784 25.0793 71.6723 22.7168L72.1147 25.1038C68.4844 27.3052 66.088 29.4439 64.9922 31.4573ZM80.0765 21.0034L79.7401 18.5598C82.1472 17.4757 84.8892 16.3412 87.8902 15.1883L88.179 17.6515C85.194 18.7971 82.4679 19.9254 80.0765 21.0034ZM96.3389 14.6868L96.0779 12.2137C98.6423 11.3275 101.404 10.4094 104.287 9.48502L104.53 11.963C101.653 12.8861 98.8975 13.8018 96.3389 14.6868ZM112.74 9.40643L111.89 6.9889C114.513 6.19364 116.728 1.99683 120.114 0L121.565 1.99683C117.211 4.49286 115.427 7.98731 112.74 9.40643Z" fill="white"/>
<path d="M119.939 834L119.099 830.637C121.348 825.474 123.564 820.279 125.685 815.198L126.548 818.507C124.42 823.607 122.196 828.82 119.939 834ZM133.043 802.563L132.154 799.315C134.332 793.832 136.461 788.322 138.483 782.94L139.402 786.11C137.371 791.518 135.231 797.055 133.043 802.563ZM145.597 769.079L144.644 766.001C146.722 760.094 148.725 754.18 150.599 748.421L151.59 751.384C149.704 757.18 147.687 763.135 145.597 769.079ZM157.333 732.913L156.297 730.095C158.206 723.649 160.012 717.194 161.664 710.909L162.753 713.538C161.084 719.887 159.26 726.406 157.333 732.913ZM167.743 693.104L166.593 690.726C168.211 683.537 169.672 676.36 170.933 669.396L172.154 671.428C170.871 678.51 169.387 685.804 167.743 693.104ZM175.749 648.344L174.453 646.803C175.463 639.08 176.254 631.11 176.817 622.981L178.181 623.83C177.602 632.196 176.788 640.397 175.749 648.344ZM177.608 598.346C177.566 590.143 177.19 581.988 176.488 574.067L177.833 572.966C178.564 581.225 178.956 589.725 179 598.275L177.608 598.346ZM173.442 551.288C172.12 544.05 170.568 537.221 168.808 530.897L169.876 528.189C171.694 534.724 173.297 541.781 174.663 549.26L173.442 551.288ZM163.055 513.088C160.986 507.564 158.819 502.389 156.563 497.584L157.366 494.139C159.664 499.032 161.872 504.304 163.979 509.931L163.055 513.088ZM149.585 484.004C147.308 479.946 144.851 475.898 142.285 471.97L142.911 468.204C145.505 472.17 147.988 476.262 150.291 480.365L149.585 484.004ZM134.759 461.185C132.336 457.922 129.754 454.637 127.086 451.421L127.602 447.502C130.286 450.737 132.884 454.044 135.325 457.328L134.759 461.185ZM119.28 442.451C116.799 439.725 114.147 436.927 111.398 434.135L111.84 430.133C114.6 432.938 117.263 435.746 119.754 438.482L119.28 442.451ZM103.455 426.317C101.028 423.997 98.4163 421.555 95.4688 418.85L95.8727 414.811C98.8249 417.521 101.442 419.969 103.874 422.291L103.455 426.317ZM87.8565 412.392C85.0398 409.839 81.9423 392.275 83.3515 396.466L85.9608 393.951C85.9608 398.981 89.9625 409.877 89.9625 409.877L87.8565 412.392ZM85.9608 376.35H83.3515C83.3515 376.35 85.9608 362.1 87.8565 358.748L89.9625 362.1C87.8565 366.301 87.4574 378.874 85.9608 376.35ZM95.4688 349.528L91.9466 347.013C94.512 345.527 99.5667 335.151 102.451 333.602L103.455 336.955C103.455 336.955 98.0285 348.044 95.4688 349.528ZM108.711 331.769L107.86 327.716C110.484 326.383 112.7 319.347 116.087 316L117.539 319.347C113.184 323.532 111.398 329.39 108.711 331.769Z" fill="white"/>
<path d="M118.73 1459L116.735 1455.01C122.078 1448.89 127.34 1442.74 132.376 1436.71L134.427 1440.64C129.373 1446.68 124.091 1452.86 118.73 1459ZM149.853 1421.74L147.741 1417.89C152.913 1411.39 157.97 1404.86 162.772 1398.48L164.955 1402.23C160.13 1408.65 155.049 1415.21 149.853 1421.74ZM179.667 1382.05L177.404 1378.4C182.34 1371.4 187.098 1364.39 191.548 1357.56L193.902 1361.07C189.423 1367.94 184.632 1375 179.667 1382.05ZM207.541 1339.18L205.08 1335.84C209.614 1328.2 213.903 1320.55 217.826 1313.1L220.413 1316.21C216.449 1323.74 212.119 1331.47 207.541 1339.18ZM232.265 1291.99L229.533 1289.17C233.377 1280.65 236.845 1272.15 239.841 1263.89L242.741 1266.3C239.694 1274.69 236.169 1283.34 232.265 1291.99ZM251.279 1238.94L248.201 1237.11C250.599 1227.96 252.477 1218.51 253.815 1208.87L257.054 1209.88C255.679 1219.8 253.747 1229.52 251.279 1238.94ZM255.693 1179.67C255.595 1169.95 254.702 1160.28 253.034 1150.89L256.228 1149.59C257.966 1159.38 258.897 1169.45 259 1179.59L255.693 1179.67ZM245.8 1123.89C242.66 1115.31 238.974 1107.22 234.795 1099.72L237.33 1096.51C241.648 1104.26 245.456 1112.62 248.7 1121.49L245.8 1123.89ZM221.132 1078.61C216.217 1072.07 211.07 1065.93 205.712 1060.24L207.62 1056.15C213.078 1061.95 218.32 1068.2 223.324 1074.87L221.132 1078.61ZM189.141 1044.14C183.731 1039.33 177.896 1034.53 171.801 1029.88L173.29 1025.41C179.449 1030.11 185.346 1034.96 190.816 1039.83L189.141 1044.14ZM153.928 1017.09C148.172 1013.22 142.041 1009.33 135.705 1005.52L136.929 1000.87C143.304 1004.71 149.475 1008.63 155.272 1012.52L153.928 1017.09ZM117.164 994.886C111.272 991.655 104.974 988.338 98.4456 985.029L99.4951 980.285C106.049 983.609 112.374 986.939 118.291 990.182L117.164 994.886ZM79.58 975.762C73.8173 973.012 67.6138 970.118 60.6135 966.911L61.5726 962.124C68.5842 965.336 74.8006 968.237 80.5746 970.99L79.58 975.762ZM42.5341 959.256C35.8446 956.229 28.4881 935.411 31.8349 940.379L38.032 937.398C38.032 943.359 47.536 956.275 47.536 956.275L42.5341 959.256ZM38.032 916.534H31.8349C31.8349 916.534 38.032 899.644 42.5341 895.67L47.536 899.644C42.5341 904.624 41.5864 919.527 38.032 916.534ZM60.6135 884.741L52.2481 881.761C58.341 880 70.3459 867.701 77.1961 865.864L79.58 869.838C79.58 869.838 66.6927 882.983 60.6135 884.741ZM92.0628 863.691L90.0432 858.887C96.2742 857.307 101.537 848.968 109.582 845L113.031 848.968C102.686 853.928 98.4456 860.871 92.0628 863.691Z" fill="white"/>
<path d="M107.73 2231L105.735 2226.04C111.078 2218.42 116.34 2210.76 121.376 2203.27L123.427 2208.15C118.373 2215.67 113.091 2223.36 107.73 2231ZM138.853 2184.63L136.741 2179.84C141.913 2171.76 146.97 2163.63 151.772 2155.69L153.955 2160.37C149.13 2168.34 144.049 2176.51 138.853 2184.63ZM168.667 2135.25L166.404 2130.71C171.34 2122 176.098 2113.27 180.548 2104.78L182.902 2109.15C178.423 2117.7 173.632 2126.48 168.667 2135.25ZM196.541 2081.91L194.08 2077.75C198.614 2068.24 202.903 2058.72 206.826 2049.45L209.413 2053.33C205.449 2062.69 201.119 2072.31 196.541 2081.91ZM221.265 2023.19L218.533 2019.69C222.377 2009.08 225.845 1998.5 228.841 1988.22L231.741 1991.22C228.694 2001.67 225.169 2012.43 221.265 2023.19ZM240.279 1957.18L237.201 1954.9C239.599 1943.51 241.477 1931.76 242.815 1919.77L246.054 1921.02C244.679 1933.36 242.747 1945.45 240.279 1957.18ZM244.693 1883.43C244.595 1871.34 243.702 1859.31 242.034 1847.62L245.228 1846C246.966 1858.18 247.897 1870.72 248 1883.33L244.693 1883.43ZM234.8 1814.03C231.66 1803.35 227.974 1793.28 223.795 1783.95L226.33 1779.96C230.648 1789.6 234.456 1800.01 237.7 1811.04L234.8 1814.03ZM210.132 1757.69C205.217 1749.54 200.07 1741.91 194.712 1734.82L196.62 1729.74C202.078 1736.95 207.32 1744.73 212.324 1753.03L210.132 1757.69ZM178.141 1714.79C172.731 1708.81 166.896 1702.83 160.801 1697.04L162.29 1691.49C168.449 1697.34 174.346 1703.37 179.816 1709.42L178.141 1714.79ZM142.928 1681.13C137.172 1676.32 131.041 1671.48 124.705 1666.73L125.929 1660.95C132.304 1665.72 138.475 1670.6 144.272 1675.45L142.928 1681.13ZM106.164 1653.5C100.272 1649.48 93.9736 1645.36 87.4456 1641.24L88.4951 1635.34C95.049 1639.47 101.374 1643.61 107.291 1647.65L106.164 1653.5ZM68.58 1629.71C62.8173 1626.29 56.6138 1622.68 49.6135 1618.69L50.5726 1612.74C57.5842 1616.73 63.8006 1620.34 69.5746 1623.77L68.58 1629.71ZM31.5341 1609.17C24.8446 1605.4 17.4881 1579.5 20.8349 1585.68L27.032 1581.97C27.032 1589.39 36.536 1605.46 36.536 1605.46L31.5341 1609.17ZM27.032 1556.01H20.8349C20.8349 1556.01 27.032 1534.99 31.5341 1530.05L36.536 1534.99C31.5341 1541.19 30.5864 1559.73 27.032 1556.01ZM49.6135 1516.45L41.2481 1512.74C47.341 1510.55 59.3459 1495.25 66.1961 1492.96L68.58 1497.91C68.58 1497.91 55.6927 1514.26 49.6135 1516.45ZM81.0628 1490.26L79.0432 1484.28C85.2742 1482.31 90.5369 1471.94 98.5824 1467L102.031 1471.94C91.6862 1478.11 87.4456 1486.75 81.0628 1490.26Z" fill="white"/>
</svg>
